<?xml version="1.0" encoding="UTF-8"?> <svg xmlns="http://www.w3.org/2000/svg" xmlns:xlink="http://www.w3.org/1999/xlink" version="1.1" id="Layer_1" x="0px" y="0px" viewBox="0 0 841.9 135.1" style="enable-background:new 0 0 841.9 135.1;" xml:space="preserve"> <style type="text/css"> .st0{clip-path:url(#SVGID_2_);fill:#930001;} .st1{clip-path:url(#SVGID_2_);fill:#215053;} .st2{fill:#930001;} .st3{fill:#215053;} .st4{clip-path:url(#SVGID_4_);fill:#930001;} .st5{clip-path:url(#SVGID_4_);fill:#215053;} .st6{clip-path:url(#SVGID_6_);fill:#930001;} .st7{clip-path:url(#SVGID_6_);fill:#215053;} </style> <g> <defs> <rect id="SVGID_1_" x="6.1" y="5.4" width="829.8" height="126.5"></rect> </defs> <clipPath id="SVGID_2_"> <use xlink:href="#SVGID_1_" style="overflow:visible;"></use> </clipPath> <path class="st0" d="M51.9,53.5c10.9,0,21.1,7.3,24.5,19.8h21.4C94.2,52,78,33.1,54.5,33.1c-9.8,0-20.1,3.8-27.4,11.5V5.4h-21v67.9 h21C30.1,62.7,39,53.5,51.9,53.5"></path> <path class="st1" d="M77.6,82.4c0,18-11.6,29.2-25.3,29.2c-12.3,0-26.4-9.7-26.4-30.2c0-0.5,0-1,0.1-1.5H6.1v49.1h19.3v-11.2 c5.2,6.2,12.7,14.2,29.6,14.2c32.1,0,43.7-31.2,43.7-49.7c0-0.8-0.1-1.6-0.1-2.4h-21C77.5,80.6,77.6,81.5,77.6,82.4"></path> <path class="st1" d="M168.1,83.7c0,14.7-4.4,27.9-17.7,27.9c-18.4,0-18.4-20.5-18.4-28v-3.7h-21v4.9c0,7.7,0,22.7,6.5,32.6 c4.4,6.3,13.4,14.7,29.4,14.7c13.4,0,19.2-7.3,22.6-12.4h0.3v9.3h19.3V79.8h-21V83.7z"></path> </g> <rect x="168.1" y="36.3" class="st2" width="21" height="37"></rect> <rect x="111" y="36.3" class="st2" width="21" height="37"></rect> <rect x="207.9" y="79.8" class="st3" width="21" height="49.1"></rect> <g> <defs> <rect id="SVGID_3_" x="6.1" y="5.4" width="829.8" height="126.5"></rect> </defs> <clipPath id="SVGID_4_"> <use xlink:href="#SVGID_3_" style="overflow:visible;"></use> </clipPath> <path class="st4" d="M248.1,54.6V33.1h-1.7c-10.9,0-14.9,5.3-18.8,11.3h-0.3v-8.2h-19.3v37h21.1C229.5,66.4,232.2,55.3,248.1,54.6"></path> <path class="st5" d="M322,82.9c0,14.7-10.1,28.7-25.5,28.7c-13.3,0-25.8-11.4-25.8-28.9c0-1,0.1-1.9,0.1-2.9h-21 c-0.1,1-0.1,1.9-0.1,2.9c0,26.5,20.7,49.2,46.8,49.2c24.4,0,46.5-19.2,46.5-49.6c0-0.9-0.1-1.7-0.1-2.5h-21.1 C322,80.8,322,81.8,322,82.9"></path> <path class="st4" d="M296.5,53.5c10.5,0,20.4,8,24,19.8h21.7c-4.1-23.6-23.6-40.2-45.7-40.2c-22.3,0-41.8,16.9-46,40.2h21.5 C275.9,60.1,287.6,53.5,296.5,53.5"></path> <path class="st4" d="M424.7,61.6c3.8-6.2,10.6-8.2,14.4-8.2c12.4,0,16.1,10.7,17.2,19.8h21.5c-0.3-8-1.6-19.3-8-27.3 c-7.3-9.4-18.8-12.9-26.4-12.9c-13.3,0-20.6,7.7-24,11.2v-8h-19.5v37h21.5C421.7,68.9,422.7,64.7,424.7,61.6"></path> <path class="st5" d="M399.9,128.9h21V84.9c0-1.6,0-3.3,0-5h-21.1V128.9z"></path> <path class="st5" d="M456.8,83.2v45.7h21V79.8h-21.1C456.8,81.1,456.8,82.3,456.8,83.2"></path> <path class="st5" d="M562.5,82.9c0,14.7-10.1,28.7-25.5,28.7c-13.3,0-25.8-11.4-25.8-28.9c0-1,0.1-1.9,0.1-2.9h-21 c-0.1,1-0.1,1.9-0.1,2.9c0,26.5,20.7,49.2,46.8,49.2c24.4,0,46.5-19.2,46.5-49.6c0-0.9-0.1-1.7-0.1-2.5h-21.1 C562.5,80.8,562.5,81.8,562.5,82.9"></path> <path class="st4" d="M537,53.5c10.5,0,20.4,8,24,19.8h21.7c-4.1-23.6-23.6-40.2-45.7-40.2c-22.3,0-41.8,16.9-46,40.2h21.5 C516.4,60.1,528.1,53.5,537,53.5"></path> <path class="st4" d="M638.3,53.5c10.5,0,20.5,8,24,19.8H684c-4.1-23.6-23.6-40.2-45.7-40.2c-22.3,0-41.7,16.9-46,40.2h21.5 C617.7,60.1,629.3,53.5,638.3,53.5"></path> <path class="st5" d="M663.8,82.9c0,14.7-10.1,28.7-25.5,28.7c-13.3,0-25.8-11.4-25.8-28.9c0-1,0.1-1.9,0.1-2.9h-21 c-0.1,1-0.1,1.9-0.1,2.9c0,26.5,20.7,49.2,46.8,49.2c24.4,0,46.5-19.2,46.5-49.6c0-0.9-0.1-1.7-0.1-2.5h-21.1 C663.7,80.8,663.8,81.8,663.8,82.9"></path> </g> <rect x="698.7" y="79.8" class="st3" width="21" height="49.1"></rect> <g> <defs> <rect id="SVGID_5_" x="6.1" y="5.4" width="829.8" height="126.5"></rect> </defs> <clipPath id="SVGID_6_"> <use xlink:href="#SVGID_5_" style="overflow:visible;"></use> </clipPath> <path class="st6" d="M738.9,54.6V33.1h-1.7c-10.9,0-14.9,5.3-18.8,11.3H718v-8.2h-19.3v37h21.1C720.3,66.4,723,55.3,738.9,54.6"></path> <path class="st6" d="M790.5,53.5c11.8,0,21.1,8.7,24.5,19.8h20.9V5.4h-21v39.1c-6.2-6.8-13.8-11.3-26.6-11.3 c-18.8,0-39.7,14.7-44,40.2H766C769.3,62.9,778.2,53.5,790.5,53.5"></path> <path class="st7" d="M816.4,82.5c0,14-10.1,29.1-25.9,29.1c-13.8,0-26-12.5-26-29.7c0-0.7,0-1.4,0.1-2h-21c0,1-0.1,1.9-0.1,2.9 c0,29.9,22.5,49.2,44.8,49.2c14.9,0,24.1-7.7,28-14.4h0.3v11.4h19.3V79.8h-19.6C816.4,80.7,816.4,81.6,816.4,82.5"></path> </g> </svg> 